<svg xmlns="http://www.w3.org/2000/svg" width="9" height="9" viewBox="0 0 299.499 299.499"><path d="M267.389 2.263a8.002 8.002 0 00-11.313.16c-6.597 6.785-39.8 42.174-45.621 72.572-4.335 22.643 3.927 47.984 11.917 72.492 5.626 17.258 10.94 33.559 10.94 46.512 0 11.293-4.807 17.387-9.33 17.387-4.06 0-8.336-5.285-8.336-15.387 0-12.461.042-48.662-28.958-53.467V57.999c0-4.418-3.249-7.5-7.667-7.5h-10.333v-8.5c0-4.418-3.249-7.5-7.667-7.5h-81c-4.418 0-8.333 3.082-8.333 7.5v8.5h-8.667c-4.418 0-8.333 3.082-8.333 7.5v207.5H38.021c-4.418 0-8.333 3.082-8.333 7.5v18c0 4.418 3.915 8.5 8.333 8.5h166c4.418 0 7.667-4.082 7.667-8.5v-18c0-4.418-3.249-7.5-7.667-7.5h-17.333V158.908c6 2.236 12.958 10.016 12.958 37.092 0 21.564 12.613 31.387 24.253 31.387 12.588 0 25.372-11.467 25.372-33.387 0-15.494-5.676-32.969-11.708-51.471-4.156-12.748-8.38-25.74-10.641-37.984 12.769-2.752 21.273-8.719 25.293-17.799 7.756-17.521-5.232-38.854-8.71-44.063 7.248-10.422 15.829-20.658 24.042-29.107a8 8 0 00-.158-11.313zm-98.701 131.236a8 8 0 01-8 8h-81a8 8 0 01-8-8v-57a8 8 0 018-8h81a8 8 0 018 8v57zm68.894-53.213c-1.7 3.82-5.836 6.574-12.31 8.229-.019-3.637.256-7.152.898-10.512 1.144-5.971 3.92-12.777 7.748-19.879 3.308 6.727 6.426 15.953 3.664 22.162z" fill="#a1a7bb" data-original="#000000" xmlns="http://www.w3.org/2000/svg"/></svg>